name C:/MyDriveSym/Projects/mobilecap/Data\Session20210819_0002\mocap\ForceDataProcessed\walking2_forces.mot
datacolumns 19
datarows 27
range 0.65950000 0.67250000
endheader 
time	R_ground_force_vx	R_ground_force_vy	R_ground_force_vz	R_ground_force_px	R_ground_force_py	R_ground_force_pz	R_ground_torque_x	R_ground_torque_y	R_ground_torque_z	L_ground_force_vx	L_ground_force_vy	L_ground_force_vz	L_ground_force_px	L_ground_force_py	L_ground_force_pz	L_ground_torque_x	L_ground_torque_y	L_ground_torque_z	
          0.65950000	         56.75500800	        174.32880100	          2.12889400	          0.30739900	          0.00600000	         -0.18010100	          0.00000000	          0.07086700	          0.00000000	        -88.50160300	        519.24466400	          3.44847700	          0.82714400	          0.00600000	         -0.27201600	          0.00000000	          0.00544200	          0.00000000	
          0.66000000	         56.24146700	        172.28359900	          2.15643400	          0.30762800	          0.00600000	         -0.18006900	          0.00000000	          0.07275800	          0.00000000	        -88.64026500	        520.81412500	          3.60078200	          0.82726300	          0.00600000	         -0.27206600	          0.00000000	          0.00155100	          0.00000000	
          0.66050000	         55.72849300	        170.24839300	          2.18320800	          0.30785900	          0.00600000	         -0.18003600	          0.00000000	          0.07460900	          0.00000000	        -88.77570800	        522.37676100	          3.75291700	          0.82738100	          0.00600000	         -0.27211600	          0.00000000	         -0.00230700	          0.00000000	
          0.66100000	         55.21613900	        168.22327300	          2.20922400	          0.30809300	          0.00600000	         -0.18000300	          0.00000000	          0.07642200	          0.00000000	        -88.90793500	        523.93250500	          3.90487200	          0.82749900	          0.00600000	         -0.27216500	          0.00000000	         -0.00612900	          0.00000000	
          0.66150000	         54.70446000	        166.20832300	          2.23449000	          0.30832800	          0.00600000	         -0.17997000	          0.00000000	          0.07819600	          0.00000000	        -89.03694400	        525.48128600	          4.05663500	          0.82761700	          0.00600000	         -0.27221500	          0.00000000	         -0.00991600	          0.00000000	
          0.66200000	         54.19350800	        164.20362800	          2.25901400	          0.30856500	          0.00600000	         -0.17993600	          0.00000000	          0.07993300	          0.00000000	        -89.16273800	        527.02303800	          4.20819700	          0.82773400	          0.00600000	         -0.27226500	          0.00000000	         -0.01366600	          0.00000000	
          0.66250000	         53.68333500	        162.20927200	          2.28280200	          0.30880500	          0.00600000	         -0.17990100	          0.00000000	          0.08163200	          0.00000000	        -89.28531700	        528.55769000	          4.35954500	          0.82785000	          0.00600000	         -0.27231500	          0.00000000	         -0.01737800	          0.00000000	
          0.66300000	         53.17399200	        160.22533400	          2.30586300	          0.30904600	          0.00600000	         -0.17986600	          0.00000000	          0.08329400	          0.00000000	        -89.40468300	        530.08517400	          4.51066900	          0.82796600	          0.00600000	         -0.27236500	          0.00000000	         -0.02105300	          0.00000000	
          0.66350000	         52.66553200	        158.25189500	          2.32820400	          0.30929000	          0.00600000	         -0.17983100	          0.00000000	          0.08491900	          0.00000000	        -89.52083800	        531.60542200	          4.66155900	          0.82808200	          0.00600000	         -0.27241400	          0.00000000	         -0.02468900	          0.00000000	
          0.66400000	         52.15800500	        156.28903200	          2.34983400	          0.30953700	          0.00600000	         -0.17979400	          0.00000000	          0.08650800	          0.00000000	        -89.63378400	        533.11836400	          4.81220500	          0.82819800	          0.00600000	         -0.27246400	          0.00000000	         -0.02828500	          0.00000000	
          0.66450000	         51.65146000	        154.33682100	          2.37076100	          0.30978500	          0.00600000	         -0.17975800	          0.00000000	          0.08806100	          0.00000000	        -89.74352500	        534.62393200	          4.96259500	          0.82831300	          0.00600000	         -0.27251300	          0.00000000	         -0.03184000	          0.00000000	
          0.66500000	         51.14594800	        152.39533500	          2.39099100	          0.31003600	          0.00600000	         -0.17972100	          0.00000000	          0.08957900	          0.00000000	        -89.85006300	        536.12205900	          5.11272100	          0.82842700	          0.00600000	         -0.27256300	          0.00000000	         -0.03535500	          0.00000000	
          0.66550000	         50.64151700	        150.46464700	          2.41053400	          0.31029000	          0.00600000	         -0.17968300	          0.00000000	          0.09106100	          0.00000000	        -89.95340200	        537.61267300	          5.26257100	          0.82854200	          0.00600000	         -0.27261200	          0.00000000	         -0.03882800	          0.00000000	
          0.66600000	         50.13821700	        148.54482700	          2.42939800	          0.31054600	          0.00600000	         -0.17964400	          0.00000000	          0.09250800	          0.00000000	        -90.05354500	        539.09570900	          5.41213600	          0.82865500	          0.00600000	         -0.27266100	          0.00000000	         -0.04225800	          0.00000000	
          0.66650000	         49.63609400	        146.63594500	          2.44759000	          0.31080500	          0.00600000	         -0.17960500	          0.00000000	          0.09392100	          0.00000000	        -90.15049700	        540.57109500	          5.56140700	          0.82876900	          0.00600000	         -0.27271100	          0.00000000	         -0.04564500	          0.00000000	
          0.66700000	         49.13519500	        144.73806700	          2.46511900	          0.31106600	          0.00600000	         -0.17956600	          0.00000000	          0.09530000	          0.00000000	        -90.24426200	        542.03876600	          5.71037300	          0.82888200	          0.00600000	         -0.27276000	          0.00000000	         -0.04898800	          0.00000000	
          0.66750000	         48.63556900	        142.85125900	          2.48199200	          0.31133000	          0.00600000	         -0.17952500	          0.00000000	          0.09664600	          0.00000000	        -90.33484500	        543.49865100	          5.85902500	          0.82899500	          0.00600000	         -0.27280900	          0.00000000	         -0.05228600	          0.00000000	
          0.66800000	         48.13725900	        140.97558500	          2.49821900	          0.31159700	          0.00600000	         -0.17948400	          0.00000000	          0.09795700	          0.00000000	        -90.42225100	        544.95068300	          6.00735300	          0.82910800	          0.00600000	         -0.27285800	          0.00000000	         -0.05553900	          0.00000000	
          0.66850000	         47.64031300	        139.11110500	          2.51380600	          0.31186700	          0.00600000	         -0.17944300	          0.00000000	          0.09923600	          0.00000000	        -90.50648700	        546.39479300	          6.15534800	          0.82922000	          0.00600000	         -0.27290800	          0.00000000	         -0.05874600	          0.00000000	
          0.66900000	         47.14477400	        137.25788200	          2.52876300	          0.31214000	          0.00600000	         -0.17940100	          0.00000000	          0.10048300	          0.00000000	        -90.58755700	        547.83091300	          6.30300200	          0.82933200	          0.00600000	         -0.27295700	          0.00000000	         -0.06190700	          0.00000000	
          0.66950000	         46.65068600	        135.41597300	          2.54309700	          0.31241600	          0.00600000	         -0.17935800	          0.00000000	          0.10169600	          0.00000000	        -90.66546700	        549.25897600	          6.45030300	          0.82944400	          0.00600000	         -0.27300600	          0.00000000	         -0.06502000	          0.00000000	
          0.67000000	         46.15809200	        133.58543500	          2.55681600	          0.31269500	          0.00600000	         -0.17931400	          0.00000000	          0.10287800	          0.00000000	        -90.74022500	        550.67891300	          6.59724500	          0.82955500	          0.00600000	         -0.27305500	          0.00000000	         -0.06808600	          0.00000000	
          0.67050000	         45.66703600	        131.76632300	          2.56992900	          0.31297800	          0.00600000	         -0.17926900	          0.00000000	          0.10402900	          0.00000000	        -90.81183700	        552.09065700	          6.74381700	          0.82966600	          0.00600000	         -0.27310400	          0.00000000	         -0.07110300	          0.00000000	
          0.67100000	         45.17755900	        129.95869000	          2.58244300	          0.31326300	          0.00600000	         -0.17922400	          0.00000000	          0.10514700	          0.00000000	        -90.88030900	        553.49413900	          6.89001200	          0.82977700	          0.00600000	         -0.27315300	          0.00000000	         -0.07407000	          0.00000000	
          0.67150000	         44.68970200	        128.16258900	          2.59436700	          0.31355200	          0.00600000	         -0.17917800	          0.00000000	          0.10623500	          0.00000000	        -90.94565000	        554.88929300	          7.03582000	          0.82988700	          0.00600000	         -0.27320200	          0.00000000	         -0.07698900	          0.00000000	
          0.67200000	         44.20350600	        126.37806900	          2.60570900	          0.31384500	          0.00600000	         -0.17913100	          0.00000000	          0.10729300	          0.00000000	        -91.00786700	        556.27605200	          7.18123200	          0.82999700	          0.00600000	         -0.27325000	          0.00000000	         -0.07985600	          0.00000000	
          0.67250000	         43.71901000	        124.60517900	          2.61647500	          0.31414100	          0.00600000	         -0.17908300	          0.00000000	          0.10831900	          0.00000000	        -91.06696800	        557.65434700	          7.32624100	          0.83010700	          0.00600000	         -0.27329900	          0.00000000	         -0.08267300	          0.00000000	
